<?xml version="1.0" standalone="no"?>
<!DOCTYPE svg PUBLIC "-//W3C//DTD SVG 20010904//EN"
 "http://www.w3.org/TR/2001/REC-SVG-20010904/DTD/svg10.dtd">
<svg version="1.0" xmlns="http://www.w3.org/2000/svg"
 width="416.000000pt" height="416.000000pt" viewBox="0 0 416.000000 416.000000"
 preserveAspectRatio="xMidYMid meet">

<g transform="translate(0.000000,416.000000) scale(0.100000,-0.100000)"
fill="#000000" stroke="none">
<path d="M1879 3059 c-241 -33 -459 -192 -565 -414 -19 -38 -37 -83 -40 -100
-5 -31 -8 -32 -77 -43 -184 -28 -337 -165 -383 -342 -59 -232 71 -470 302
-551 51 -17 85 -21 244 -22 l185 -2 3 33 3 32 -149 0 c-81 0 -175 5 -208 11
-123 23 -238 112 -292 227 -24 50 -27 69 -27 157 0 91 3 106 31 165 66 139
210 230 364 230 l45 0 28 88 c66 209 226 368 442 439 101 33 262 37 365 9 181
-49 350 -186 427 -346 22 -47 43 -93 46 -102 5 -15 10 -15 59 4 67 25 178 34
247 19 288 -62 445 -378 316 -638 -86 -175 -241 -263 -463 -263 -56 0 -66 -3
-87 -27 -13 -16 -25 -31 -25 -35 0 -14 249 0 308 17 183 53 333 212 371 393
77 368 -261 703 -622 618 l-57 -13 -36 67 c-144 275 -449 432 -755 389z"/>
<path d="M1674 2670 c-109 -33 -157 -214 -94 -346 49 -100 180 -122 258 -43
28 28 51 84 40 95 -3 2 -19 7 -36 10 -27 6 -32 4 -32 -13 0 -51 -72 -89 -121
-63 -63 34 -75 217 -18 279 41 44 119 19 135 -44 5 -21 12 -25 40 -25 29 0 34
3 34 24 0 28 -35 82 -70 107 -31 23 -95 31 -136 19z"/>
<path d="M2056 2670 c-38 -12 -83 -55 -108 -105 -31 -59 -29 -169 4 -233 58
-112 193 -133 279 -42 63 66 77 197 31 286 -25 49 -51 72 -99 90 -43 15 -66
16 -107 4z m112 -83 c49 -52 52 -202 4 -258 -22 -26 -30 -30 -70 -27 -62 4
-85 35 -90 123 -8 128 20 185 92 185 31 0 48 -6 64 -23z"/>
<path d="M2385 2443 c-26 -6 -62 -40 -68 -63 -3 -13 2 -19 19 -23 16 -3 24 0
24 9 0 8 11 21 24 29 34 22 66 5 66 -34 0 -31 -34 -67 -103 -110 -22 -13 -37
-30 -37 -42 0 -17 8 -19 95 -19 84 0 95 2 95 18 0 15 -8 17 -60 14 -62 -4 -77
7 -36 26 13 6 40 25 60 42 29 26 36 39 36 69 0 57 -56 97 -115 84z"/>
<path d="M2300 1888 l0 -187 -66 -3 -66 -3 132 -168 c73 -93 136 -165 141
-160 4 4 65 80 133 168 l125 160 -64 3 -65 3 0 184 0 184 -135 3 -135 3 0
-187z"/>
<path d="M1590 1625 l0 -184 -66 -3 -65 -3 132 -168 c127 -163 132 -168 150
-150 9 10 70 86 134 168 l117 150 -66 3 -66 3 0 184 0 185 -135 0 -135 0 0
-185z"/>
<path d="M1902 1618 l3 -33 148 -2 c135 -2 146 0 137 15 -30 52 -30 52 -164
52 l-127 0 3 -32z"/>
</g>
</svg>
